<?xml version="1.0" standalone="no"?>
<!DOCTYPE svg PUBLIC "-//W3C//DTD SVG 20010904//EN"
 "http://www.w3.org/TR/2001/REC-SVG-20010904/DTD/svg10.dtd">
<svg version="1.0" xmlns="http://www.w3.org/2000/svg"
 width="700.000000pt" height="700.000000pt" viewBox="0 0 700.000000 700.000000"
 preserveAspectRatio="xMidYMid meet">
<metadata>
Created by potrace 1.14, written by Peter Selinger 2001-2017
</metadata>
<g transform="translate(0.000000,700.000000) scale(0.100000,-0.100000)"
fill="#000000" stroke="none">
<path d="M1515 6990 c-161 -25 -150 -22 -263 -54 -430 -122 -783 -390 -1006
-766 -98 -165 -150 -288 -191 -455 -56 -225 -54 -133 -54 -2210 0 -1129 4
-1947 10 -1985 15 -109 18 -123 33 -190 20 -89 46 -183 55 -195 4 -5 13 -28
20 -50 19 -57 107 -230 149 -295 174 -265 408 -475 677 -607 55 -28 116 -55
135 -62 19 -7 44 -17 55 -22 70 -29 176 -55 325 -79 109 -17 224 -18 2045 -19
1062 0 1950 4 1975 8 25 5 65 11 90 14 25 4 90 18 145 32 374 96 687 303 936
620 77 98 179 278 228 403 27 67 81 247 86 287 3 17 7 41 10 55 3 14 9 52 13
85 9 79 9 3913 0 3990 -32 261 -132 528 -279 747 -61 91 -77 112 -144 187
-101 112 -245 234 -372 314 -98 62 -322 163 -403 182 -8 2 -31 9 -50 15 -35
11 -110 27 -165 36 -16 3 -41 8 -55 12 -35 9 -3944 11 -4005 2z m1755 -1335
c159 -8 278 -20 390 -40 14 -3 41 -7 60 -10 274 -45 549 -149 753 -283 284
-187 455 -472 504 -837 10 -78 10 -383 -1 -460 -54 -390 -279 -691 -661 -883
-44 -22 -90 -43 -102 -47 -23 -6 -30 -20 -15 -27 25 -10 335 -453 489 -698 75
-118 216 -359 273 -465 24 -44 55 -100 68 -125 42 -77 211 -417 214 -430 2
-10 -112 -13 -526 -14 -597 -1 -544 -9 -593 84 -17 30 -40 73 -53 95 -12 22
-56 99 -96 172 -40 72 -84 150 -98 172 -14 22 -26 43 -26 46 0 6 -191 320
-258 425 -95 146 -147 225 -152 230 -3 3 -24 31 -45 64 -22 32 -47 68 -55 80
-19 28 -109 145 -133 172 -18 21 -26 22 -256 22 l-238 0 1 -770 c1 -423 -2
-775 -6 -781 -7 -11 -931 -18 -949 -6 -5 3 -8 859 -7 2109 l3 2104 130 22 c72
13 175 28 230 34 55 6 111 13 125 14 27 4 175 16 250 21 25 2 128 7 230 10
102 4 186 8 187 9 4 3 244 -2 363 -9z"/>
<path d="M2997 4844 c-2 -1 -199 -14 -264 -17 -7 0 -14 -5 -16 -11 -2 -6 -4
-266 -4 -578 0 -404 3 -568 11 -571 16 -7 460 0 541 7 88 8 199 25 245 36 19
5 46 11 60 14 95 17 241 97 302 165 106 119 151 338 108 525 -64 284 -347 419
-901 429 -44 1 -81 1 -82 1z"/>
</g>
</svg>
